<svg width="1440" height="1024" viewBox="0 0 1440 1024" fill="none" xmlns="http://www.w3.org/2000/svg">
<g clip-path="url(#clip0)">
<rect width="1440" height="1024" fill="black"/>
<rect width="1440" height="378" fill="url(#paint0_linear)"/>
<path d="M1352.12 280L1440 316V378H0V300L85.8807 232L144.799 316L174 300L300.583 212L347.517 239L425.409 212L519.279 168L587.184 220L693.037 202L814.868 184L896.755 152L968 280L1048.54 202L1102 274L1118 316L1204.33 202L1272.23 274L1334.15 316L1352.12 280Z" fill="#120017" fill-opacity="0.56"/>
<ellipse cx="1007" cy="182.5" rx="125" ry="116.5" fill="url(#paint1_linear)"/>
<path d="M88 292L0 328V390H1442V312L1356 244L1292 328L1254 292L1200 244L1160 292L1120 244L1068 292L978 214L934 258L780 100L640 244L590 166L416.034 282L362 214L308 292L202 244L130 328L88 292Z" fill="black"/>
</g>
<defs>
<linearGradient id="paint0_linear" x1="720" y1="0" x2="720" y2="378" gradientUnits="userSpaceOnUse">
<stop/>
<stop offset="1" stop-color="#8900BA"/>
</linearGradient>
<linearGradient id="paint1_linear" x1="1007" y1="66" x2="936" y2="239" gradientUnits="userSpaceOnUse">
<stop stop-color="#B04BFF" stop-opacity="0.57"/>
<stop offset="0.9998" stop-color="#1C0024" stop-opacity="0"/>
<stop offset="0.9999" stop-opacity="0.81"/>
<stop offset="1" stop-color="#380248" stop-opacity="0.46"/>
</linearGradient>
<clipPath id="clip0">
<rect width="1440" height="1024" fill="white"/>
</clipPath>
</defs>
</svg>
