<svg width="1920" height="1080" viewBox="0 0 1920 1080" fill="none" xmlns="http://www.w3.org/2000/svg">
<g clip-path="url(#clip0)">
<rect width="1920" height="1080" fill="url(#paint0_linear)"/>
<path d="M347.756 1075H209.186H-4V676.516H107.922V827.421H209.186V730.747H307.784V957.105H347.756H409.047V1046.71H475.668V730.747H656.875V938.242H779.457V787.337H942.011V902.874V1030.2H1011.3V858.074H1093.91V919.379H1171.19V858.074H1251.13V919.379H1384.37V627H1480.3V766.116H1581.57V968.895L1706.81 980.684V700.095H1920V1075H347.756Z" fill="url(#paint1_linear)"/>
<path d="M1568.98 1075H1707.26H1920V716.308H1808.31V838.128H1707.26V745.635H1608.86V962.204H1568.98H1507.81V1047.93H1441.33V745.635H1260.5V944.156H1138.17V799.777H1026.48V1016.35H874.903V867.455H824.377V926.109H747.258V867.455H667.479V926.109H534.515V599H438.781V779.474H337.729V973.483L212.742 984.763V716.308H0V1075H1568.98Z" fill="black"/>
<path d="M1526.72 948.682C1530.94 947.097 1542.6 945.937 1544.81 946.447C1542.6 945.654 1542.18 945.371 1542.18 945.343C1546.24 945.626 1553.33 945.852 1553.33 945.994C1553.41 945.937 1545 940.165 1537.57 939.429C1537.57 939.429 1537.95 939.146 1540.2 939.175C1537.02 937.222 1527.81 936.204 1525.75 937.647C1525.75 937.647 1524.9 936.883 1525.52 936.317C1523.2 936.628 1518.39 938.439 1516.11 940.759C1516.11 940.787 1516.15 940.278 1516.61 939.571C1517.08 939.061 1517.54 938.58 1517.97 938.128C1518.47 937.703 1519.17 937.307 1520.02 936.911C1519.59 936.996 1519.17 937.109 1518.78 937.222C1519.01 936.968 1519.21 936.713 1519.4 936.515C1518.39 936.77 1517.58 935.864 1517.58 935.864C1519.94 934.676 1521.14 933.657 1521.14 933.657C1523.39 930.064 1529.86 921.207 1531.45 919.708C1529.12 920.67 1528.46 920.698 1528.46 920.698C1531.45 918.123 1535.17 911.983 1535.32 911.955C1535.36 911.841 1523.82 913.709 1517.93 918.944C1517.93 918.944 1517.85 918.434 1519.28 916.595C1514.87 917.416 1507.2 923.952 1507.31 926.498C1507.31 926.498 1505.76 926.612 1505.53 925.763C1504.64 927.177 1503.59 929.95 1503.25 932.525C1502.78 932.723 1502.2 932.723 1501.77 932.695C1501.77 932.299 1501.77 931.874 1501.85 931.393C1502.47 929.979 1502.51 929.045 1502.51 929.045C1501.5 924.801 1495.5 915.011 1494.22 913.369C1493.99 915.293 1493.52 915.718 1493.52 915.718C1492.44 912.294 1486.01 907.031 1486.01 907.031C1486.01 907.031 1482.6 914.416 1483.72 920.415C1483.72 920.415 1483.1 920.132 1481.98 918.378C1480.12 921.122 1480.28 928.649 1482.44 930.318C1482.44 930.318 1481.05 931.082 1480.04 930.629C1480.78 932.554 1483.22 936.6 1486.01 938.75C1486.01 938.75 1485.43 938.722 1484.57 938.439C1483.68 937.845 1482.79 937.335 1482.06 936.968C1481.59 936.543 1481.09 936.034 1480.66 935.383C1480.82 936.006 1481.01 936.6 1481.2 937.194C1480.89 937.647 1480.08 937.93 1480.08 937.93C1478.65 936.147 1476.94 935.383 1476.98 935.383C1471.44 933.431 1457.07 932.355 1454.86 932.525C1457.11 933.233 1457.42 933.629 1457.42 933.6C1452.89 932.836 1445.22 934.11 1445.33 934.081C1445.49 933.997 1453.04 937.477 1458.97 939.769C1458.97 939.769 1458.47 939.91 1456.37 939.656C1458.58 941.523 1464.78 945.258 1467.1 945.258C1467.1 945.258 1466.95 946.305 1466.1 946.531C1467.88 947.239 1472.14 948.455 1475.51 948.512C1475.51 948.512 1473.23 949.842 1469.78 948.936C1472.68 950.634 1475.74 951.794 1478.8 952.473C1478.76 952.473 1478.76 952.473 1478.73 952.473C1474.89 953.237 1471.37 954.878 1468.42 957.425C1471.25 955.784 1473.34 956.18 1473.3 956.152C1470.28 956.944 1467.03 959.094 1465.83 960.255C1466.52 960.085 1466.76 960.736 1466.76 960.736C1464.86 961.471 1461.64 966.621 1461.64 969.111C1462.61 967.923 1462.96 967.809 1462.96 967.809C1460.13 972.082 1461.26 979.014 1461.45 979.043C1461.41 979.071 1463.81 975.562 1465.17 972.874C1465.17 972.874 1465.21 973.27 1464.94 974.94C1465.32 974.346 1466.48 972.167 1468.54 969.875C1470.55 967.583 1473.5 965.263 1475.32 963.99C1475.32 963.99 1476.32 963.028 1477.33 961.641C1477.33 961.641 1478.49 961.641 1478.38 962.15C1480.04 960.962 1483.8 958.727 1485.27 957.368C1485.27 957.397 1485.54 957.595 1485.47 957.963C1485.43 958.048 1485.39 958.132 1485.39 958.246C1485.19 958.67 1484.61 959.236 1483.34 959.972C1483.99 959.689 1484.61 959.377 1485.23 959.066C1485.23 959.094 1485.23 959.123 1485.23 959.151C1485.23 961.556 1487.91 963.509 1491.2 963.509C1493.17 963.509 1494.92 962.801 1496 961.726C1496.12 969.903 1496.62 977.769 1498.4 987.701C1506 1029.32 1526.8 1050.54 1523.66 1079.46L1535.24 1080C1537.02 1053.03 1520.37 1033.31 1510.06 1002.19C1503.28 981.731 1502.39 964.414 1502.16 958.132C1502.28 958.104 1502.36 958.076 1502.47 958.048C1503.52 959.293 1505.42 960.113 1507.55 960.113C1508.63 960.113 1509.64 959.887 1510.53 959.519C1512.43 960.17 1514.44 960.736 1516.22 961.188C1512.58 959.915 1512.74 958.698 1512.78 958.67C1515.22 959.83 1519.75 961.5 1521.76 962.433C1521.41 961.896 1522.58 961.556 1522.58 961.556C1524.13 962.914 1525.36 963.735 1525.4 963.735C1527.61 964.725 1531.37 966.508 1534.08 968.715C1536.91 970.837 1538.57 973.242 1539.08 973.893C1538.57 972.139 1538.54 971.714 1538.54 971.714C1540.7 974.487 1543.11 979.269 1542.87 979.326C1542.99 979.439 1544.73 971.601 1540.55 966.225C1540.51 966.225 1541.05 966.366 1542.33 967.894C1542.37 964.895 1536.56 958.331 1533.58 957.878C1533.58 957.878 1533.5 957.001 1534.43 957.086C1532.34 955.756 1526.72 953.888 1522.85 953.945C1522.81 954.001 1524.51 952.813 1529.24 954.086C1523.97 951.907 1518.93 951.37 1514.67 951.681C1514.4 951.54 1514.29 951.398 1514.29 951.398C1517 951.172 1521.37 950.125 1523.43 949.7C1522.69 949.389 1523.04 948.371 1523.04 948.371C1525.17 948.795 1526.72 948.71 1526.72 948.682Z" fill="url(#paint2_linear)"/>
<path d="M296.666 936.659C296.666 936.682 297.057 936.388 299.038 936.795C297.253 935.124 285.981 928.779 280.993 929.276C280.993 929.276 279.379 929.66 277.179 931.353C277.179 931.353 276.567 930.112 277.252 929.208C275.027 929.592 270.284 932.008 267.521 934.56C267.521 934.627 268.254 932.008 272.044 929.637C270.039 930.224 267.692 932.008 265.344 934.063C265.467 933.86 265.564 933.679 265.662 933.476C263.78 936.005 262.068 936.027 262.044 936.005C263.828 934.198 266.102 931.037 267.08 929.615C266.371 929.841 265.76 929.028 265.76 929.028C267.472 927.921 268.352 926.996 268.352 926.996C269.99 923.677 274.709 915.526 275.883 914.149C274.196 915.029 273.707 915.074 273.707 915.074C275.883 912.681 278.572 907.036 278.695 907.036C278.744 906.923 270.332 908.662 266.005 913.471C266.005 913.471 265.956 912.997 266.983 911.304C263.78 912.071 258.18 918.1 258.278 920.425C258.278 920.425 257.153 920.516 256.982 919.748C256.029 921.645 254.879 926.183 255.295 929.05C255.32 929.05 253.706 927.899 254.39 924.128C254.048 924.986 253.755 925.822 253.51 926.634C253.217 926.047 252.874 925.483 252.483 924.896C253.535 927.492 252.557 928.87 252.581 928.87C252.532 926.409 251.041 923.315 250.111 922.096C250.111 922.638 249.353 922.616 249.353 922.616C249.06 920.99 244.341 916.971 241.676 916.135C242.703 917.219 242.727 917.535 242.752 917.513C238.888 914.036 231.113 912.568 231.04 912.726C231.015 912.704 234.169 915.571 236.712 917.468C236.712 917.468 236.272 917.355 234.561 916.632C235.098 917.106 237.152 918.664 239.084 920.922C241.04 923.135 242.752 926.047 243.656 927.809C243.656 927.809 244.414 928.87 245.661 930.044C245.661 930.044 245.343 930.902 244.854 930.631C245.319 931.534 246.004 933.047 246.688 934.469C246.444 935.011 246.126 935.259 246.126 935.259C246.15 932.776 244.023 929.276 242.703 927.899C242.654 928.599 241.456 928.757 241.456 928.757C241.016 926.905 240.111 925.867 240.111 925.867C236.908 922.954 227.348 918.913 225.758 918.597C227.079 919.703 227.176 920.109 227.176 920.109C224.267 918.461 218.594 917.897 218.667 917.919C218.79 917.874 222.873 922.548 226.247 925.844C226.247 925.844 225.856 925.867 224.511 925.167C225.44 927.267 228.497 931.873 230.11 932.369C230.11 932.369 229.67 933.25 229.01 933.25C230.037 934.243 232.556 936.23 234.878 937.021C234.878 937.021 232.873 937.698 230.771 936.163C233.558 940.182 237.348 942.575 241.113 943.636C241.113 943.726 241.089 943.817 241.089 943.907C239.891 943.952 238.619 944.11 237.421 944.426C234.634 945.126 232.067 946.639 229.915 948.987C231.969 947.474 233.485 947.836 233.46 947.813C231.26 948.536 228.888 950.545 228.008 951.584C228.497 951.426 228.692 952.035 228.692 952.035C227.299 952.713 224.976 957.454 224.976 959.734C225.66 958.651 225.929 958.538 225.929 958.538C223.851 962.466 224.682 968.879 224.829 968.879C224.805 968.901 226.541 965.673 227.543 963.189C227.543 963.189 227.568 963.55 227.372 965.086C227.665 964.544 228.497 962.534 230.013 960.412C231.48 958.289 233.631 956.167 234.976 954.993C234.976 954.993 235.71 954.112 236.443 952.825C236.443 952.825 237.299 952.825 237.201 953.277C238.399 952.193 241.162 950.139 242.214 948.874C242.238 948.897 243.021 949.665 240.796 951.268C242.238 950.455 243.705 949.506 244.781 948.536C244.292 949.213 243.999 950.026 243.999 950.884C243.999 953.187 246.028 955.061 248.522 955.061C249.158 955.061 249.794 954.925 250.331 954.699C252.532 999.315 272.851 1045.42 272.631 1069.44C272.606 1070.64 272.533 1072.94 272.484 1074.21L281.018 1074.73C282.362 1044.86 258.205 1000.67 254.977 952.871C255.686 953.3 256.542 953.548 257.447 953.548C259.207 953.548 260.748 952.6 261.481 951.245C262.606 951.697 263.731 952.08 264.758 952.419C262.117 951.245 262.215 950.139 262.239 950.093C264.024 951.155 267.325 952.713 268.768 953.548C268.523 953.051 269.354 952.758 269.354 952.758C270.479 954.022 271.408 954.767 271.408 954.767C272.998 955.67 275.761 957.341 277.741 959.351C279.795 961.315 281.018 963.505 281.384 964.137C281.018 962.512 280.993 962.15 280.993 962.15C282.582 964.702 284.318 969.105 284.172 969.15C284.245 969.24 285.517 962.015 282.46 957.093C282.436 957.093 282.802 957.228 283.756 958.628C283.781 955.874 279.55 949.823 277.399 949.416C277.399 949.416 277.35 948.603 278.01 948.694C276.494 947.474 272.411 945.758 269.574 945.804C269.648 945.758 270.919 944.81 274.22 945.916C273.707 945.646 273.169 945.397 272.655 945.171C273.756 945.104 274.905 945.013 276.103 944.9C271.995 944.471 271.775 942.914 271.751 942.891C274.367 943.659 279.477 944.155 281.873 944.426C281.189 943.907 281.922 943.049 281.922 943.049C284.221 943.839 292.999 944.155 295.493 943.636C293.341 942.688 292.925 942.327 292.925 942.304C299.551 943.388 306.3 944.268 306.667 944.471C306.398 944.065 300.334 938.149 296.666 936.659Z" fill="url(#paint3_linear)"/>
</g>
<defs>
<linearGradient id="paint0_linear" x1="960" y1="0" x2="960" y2="1080" gradientUnits="userSpaceOnUse">
<stop offset="0.135417" stop-color="#2925F0"/>
<stop offset="0.291667" stop-color="#9625EC" stop-opacity="0.815028"/>
<stop offset="0.510417" stop-color="#F025E8" stop-opacity="0.663086"/>
<stop offset="0.84375" stop-color="#ED2525" stop-opacity="0.288086"/>
<stop offset="0.947917" stop-color="#000001"/>
</linearGradient>
<linearGradient id="paint1_linear" x1="958" y1="577.484" x2="958" y2="1075" gradientUnits="userSpaceOnUse">
<stop offset="0.140625" stop-color="#992D88"/>
<stop offset="1" stop-color="#DC8116" stop-opacity="0"/>
</linearGradient>
<linearGradient id="paint2_linear" x1="1499.33" y1="907.031" x2="1499.33" y2="1080" gradientUnits="userSpaceOnUse">
<stop stop-color="#CF5816"/>
<stop offset="0.682292" stop-opacity="0"/>
</linearGradient>
<linearGradient id="paint3_linear" x1="262.667" y1="907.031" x2="262.667" y2="1074.73" gradientUnits="userSpaceOnUse">
<stop stop-color="#1E1901"/>
<stop offset="0.614583" stop-opacity="0"/>
</linearGradient>
<clipPath id="clip0">
<rect width="1920" height="1080" fill="white"/>
</clipPath>
</defs>
</svg>
