<svg width="1922" height="664" viewBox="0 0 1922 664" fill="none" xmlns="http://www.w3.org/2000/svg">
<path d="M1920 0H0V579H1920V0Z" fill="url(#paint0_linear)"/>
<path d="M1216 531C1314.31 531 1394 451.307 1394 353C1394 254.693 1314.31 175 1216 175C1117.69 175 1038 254.693 1038 353C1038 451.307 1117.69 531 1216 531Z" fill="url(#paint1_linear)"/>
<path d="M1920 481.065L1844.68 432.033L1761.36 440.141L1674.6 402.567L1527.11 449.8L1406.14 413.951L1312.83 440.142L1208.07 382.849L1098.39 413.949L1001.65 369.828L859.585 413.95L808.934 382.85L737.041 440.143L607.141 382.85L494.359 432.033L414.149 413.95L302.419 481.065L232.447 440.141L176.627 481.065L72.026 449.8L1.77698 497.435V602.2H1920V481.065Z" fill="#30003E"/>
<g opacity="0.05">
<path opacity="0.05" d="M1922 0H0V6H1922V0Z" fill="black"/>
<path opacity="0.05" d="M1922 14H0V20H1922V14Z" fill="black"/>
<path opacity="0.05" d="M1922 28H0V34H1922V28Z" fill="black"/>
<path opacity="0.05" d="M1922 42H0V48H1922V42Z" fill="black"/>
<path opacity="0.05" d="M1922 56H0V62H1922V56Z" fill="black"/>
<path opacity="0.05" d="M1922 70H0V76H1922V70Z" fill="black"/>
<path opacity="0.05" d="M1922 84H0V90H1922V84Z" fill="black"/>
<path opacity="0.05" d="M1922 98H0V104H1922V98Z" fill="black"/>
<path opacity="0.05" d="M1922 112H0V118H1922V112Z" fill="black"/>
<path opacity="0.05" d="M1922 126H0V132H1922V126Z" fill="black"/>
<path opacity="0.05" d="M1922 140H0V146H1922V140Z" fill="black"/>
<path opacity="0.05" d="M1922 154H0V160H1922V154Z" fill="black"/>
<path opacity="0.05" d="M1922 168H0V174H1922V168Z" fill="black"/>
<path opacity="0.05" d="M1922 182H0V188H1922V182Z" fill="black"/>
<path opacity="0.05" d="M1922 196H0V202H1922V196Z" fill="black"/>
<path opacity="0.05" d="M1922 210H0V216H1922V210Z" fill="black"/>
<path opacity="0.05" d="M1922 224H0V230H1922V224Z" fill="black"/>
<path opacity="0.05" d="M1922 238H0V244H1922V238Z" fill="black"/>
<path opacity="0.05" d="M1922 252H0V258H1922V252Z" fill="black"/>
<path opacity="0.05" d="M1922 266H0V272H1922V266Z" fill="black"/>
<path opacity="0.05" d="M1922 280H0V286H1922V280Z" fill="black"/>
<path opacity="0.05" d="M1922 294H0V300H1922V294Z" fill="black"/>
<path opacity="0.05" d="M1922 308H0V314H1922V308Z" fill="black"/>
<path opacity="0.05" d="M1922 322H0V328H1922V322Z" fill="black"/>
<path opacity="0.05" d="M1922 336H0V342H1922V336Z" fill="black"/>
<path opacity="0.05" d="M1922 350H0V356H1922V350Z" fill="black"/>
<path opacity="0.05" d="M1922 364H0V370H1922V364Z" fill="black"/>
<path opacity="0.05" d="M1922 378H0V384H1922V378Z" fill="black"/>
<path opacity="0.05" d="M1922 392H0V398H1922V392Z" fill="black"/>
<path opacity="0.05" d="M1922 406H0V412H1922V406Z" fill="black"/>
<path opacity="0.05" d="M1922 420H0V426H1922V420Z" fill="black"/>
<path opacity="0.05" d="M1922 434H0V440H1922V434Z" fill="black"/>
<path opacity="0.05" d="M1922 448H0V454H1922V448Z" fill="black"/>
<path opacity="0.05" d="M1922 462H0V468H1922V462Z" fill="black"/>
<path opacity="0.05" d="M1922 476H0V482H1922V476Z" fill="black"/>
<path opacity="0.05" d="M1922 490H0V496H1922V490Z" fill="black"/>
<path opacity="0.05" d="M1922 504H0V510H1922V504Z" fill="black"/>
<path opacity="0.05" d="M1922 518H0V524H1922V518Z" fill="black"/>
<path opacity="0.05" d="M1922 532H0V538H1922V532Z" fill="black"/>
<path opacity="0.05" d="M1922 546H0V552H1922V546Z" fill="black"/>
<path opacity="0.05" d="M1922 560H0V566H1922V560Z" fill="black"/>
<path opacity="0.05" d="M1922 574H0V580H1922V574Z" fill="black"/>
<path opacity="0.05" d="M1922 588H0V594H1922V588Z" fill="black"/>
<path opacity="0.05" d="M1922 602H0V608H1922V602Z" fill="black"/>
<path opacity="0.05" d="M1922 616H0V622H1922V616Z" fill="black"/>
<path opacity="0.05" d="M1922 630H0V636H1922V630Z" fill="black"/>
<path opacity="0.05" d="M1922 644H0V650H1922V644Z" fill="black"/>
<path opacity="0.05" d="M1922 658H0V664H1922V658Z" fill="black"/>
</g>
<path d="M0 535.078L65.478 499.065L98.053 525.256L207.892 467.8L268.459 515.435L310.859 499.066L361.768 535.079L482.9 458.141L541.83 499.065L718.62 373.02L780.82 420.491L928.149 315.727L1062.38 431.95L1113.12 400.85L1185.15 458.143L1271.91 400.85L1393.04 485.808L1469.98 431.952L1509.27 467.801L1551.64 431.952L1620.58 499.067L1669.96 459.143L1736.71 535.08L1817.01 474.513L1921.78 515.437V620.2H0V535.078Z" fill="black"/>
<defs>
<linearGradient id="paint0_linear" x1="960" y1="0" x2="960" y2="579" gradientUnits="userSpaceOnUse">
<stop/>
<stop offset="1" stop-color="#4F006B"/>
</linearGradient>
<linearGradient id="paint1_linear" x1="1216" y1="175" x2="1216" y2="423.844" gradientUnits="userSpaceOnUse">
<stop stop-color="#DE6EFF"/>
<stop offset="0.724" stop-color="#5B1C71" stop-opacity="0.549"/>
<stop offset="1" stop-color="#2B0043" stop-opacity="0"/>
</linearGradient>
</defs>
</svg>
